<svg xmlns="http://www.w3.org/2000/svg" width="24" height="24" fill="none" viewBox="0 0 24 24"><rect width="24" height="24" fill="#E9ECEF" rx="6"/><path fill="url(#a)" d="M8.845 11.398 6.99 7.332l-1.855 4.066h.772l.476 1.554H4.429l-.706 1.553H2l4.128-9.06h1.724l2.815 6.18-.698 2.238-.419-.911z"/><path fill="url(#b)" d="M22 13.122a4.8 4.8 0 0 1-1.518 1.017 4.7 4.7 0 0 1-1.855.366 4.7 4.7 0 0 1-1.847-.366 4.8 4.8 0 0 1-1.518-1.008 4.7 4.7 0 0 1-1.018-1.505 4.6 4.6 0 0 1-.369-1.83q0-.975.37-1.83a4.7 4.7 0 0 1 2.536-2.513 4.7 4.7 0 0 1 1.846-.366c.665 0 1.28.122 1.855.366A4.8 4.8 0 0 1 22 6.469l-1.108 1.098a3.13 3.13 0 0 0-2.265-.927q-.639.002-1.215.236c-.386.163-.73.39-1.034.691a3.08 3.08 0 0 0-.935 2.229c0 .423.082.83.238 1.212q.244.571.697 1.033.456.45 1.034.683a3.28 3.28 0 0 0 2.446 0 3.1 3.1 0 0 0 1.034-.683z"/><path fill="url(#c)" d="m16.592 11.74.46-1.578h1.633l-.681 2.318c-.46-.106-1.026-.423-1.412-.74m-6.114 7.482H8.845l-2.881-9.068h1.65l2.027 6.384 1.87-6.384h1.65l2.027 6.384.682-2.318c.147.09 1.182.545 1.444.618l-1.288 4.384h-1.633l-2.052-6.384z"/><path fill="url(#d)" d="M13.153 8.999h-1.641l.82-4.221z"/><defs><linearGradient id="a" x1="6.333" x2="6.333" y1="5.445" y2="14.505" gradientUnits="userSpaceOnUse"><stop stop-color="#888"/><stop offset="1" stop-color="#4F4F4F"/></linearGradient><linearGradient id="b" x1="17.938" x2="17.938" y1="5.087" y2="14.505" gradientUnits="userSpaceOnUse"><stop stop-color="#888"/><stop offset="1" stop-color="#4F4F4F"/></linearGradient><linearGradient id="c" x1="12.324" x2="12.324" y1="10.154" y2="19.222" gradientUnits="userSpaceOnUse"><stop stop-color="#FF9841"/><stop offset="0" stop-color="#FFB270"/><stop offset="1" stop-color="#D96E13"/></linearGradient><linearGradient id="d" x1="12.332" x2="12.332" y1="4.778" y2="8.999" gradientUnits="userSpaceOnUse"><stop stop-color="#FF9841"/><stop offset="0" stop-color="#FFB270"/><stop offset="1" stop-color="#D96E13"/></linearGradient></defs></svg>