<svg xmlns="http://www.w3.org/2000/svg" width="24" height="24" fill="none" viewBox="0 0 24 24"><g clip-path="url(#a)"><rect width="24" height="24" fill="#E9ECEF" rx="6"/><g filter="url(#b)"><path fill="#B6D7FF" d="M3.5 7a1 1 0 0 1 1-1h15a1 1 0 0 1 1 1v10a1 1 0 0 1-1 1h-15a1 1 0 0 1-1-1z"/><mask id="c" width="18" height="12" x="3" y="6" maskUnits="userSpaceOnUse" style="mask-type:alpha"><path fill="#EBEBEB" d="M3.5 7a1 1 0 0 1 1-1h15a1 1 0 0 1 1 1v10a1 1 0 0 1-1 1h-15a1 1 0 0 1-1-1z"/></mask><g mask="url(#c)"><path fill="#85B1E6" d="M3.075 17.694 12 11l8.925 6.694v.806H3.075z"/><path fill="#689AD6" d="M3.075 6.329a.83.83 0 0 0 .353.68l7.999 5.59a1 1 0 0 0 1.145 0l7.998-5.59a.829.829 0 0 0-.475-1.509H3.903a.83.83 0 0 0-.829.829"/></g></g></g><defs><clipPath id="a"><path fill="#fff" d="M0 0h24v24H0z"/></clipPath><filter id="b" width="41" height="36" x="-8.5" y="-2" color-interpolation-filters="sRGB" filterUnits="userSpaceOnUse"><feFlood flood-opacity="0" result="BackgroundImageFix"/><feColorMatrix in="SourceAlpha" result="hardAlpha" values="0 0 0 0 0 0 0 0 0 0 0 0 0 0 0 0 0 0 127 0"/><feOffset dy="4"/><feGaussianBlur stdDeviation="6"/><feColorMatrix values="0 0 0 0 0 0 0 0 0 0 0 0 0 0 0 0 0 0 0.08 0"/><feBlend in2="BackgroundImageFix" result="effect1_dropShadow_1552:35570"/><feBlend in="SourceGraphic" in2="effect1_dropShadow_1552:35570" result="shape"/></filter></defs></svg>