<svg xmlns="http://www.w3.org/2000/svg" width="24" height="24" fill="none" viewBox="0 0 24 24"><rect width="24" height="24" fill="#E9ECEF" rx="6"/><path fill="#6C757D" fill-rule="evenodd" d="M17.4 15.723c-.684 0-1.296.271-1.764.696l-6.417-3.75a3 3 0 0 0 .08-.633 3 3 0 0 0-.08-.632l6.345-3.714a2.68 2.68 0 0 0 1.836.732c1.494 0 2.7-1.211 2.7-2.711S18.894 3 17.4 3s-2.7 1.21-2.7 2.71c0 .218.036.426.08.633l-6.344 3.714A2.68 2.68 0 0 0 6.6 9.325c-1.494 0-2.7 1.211-2.7 2.711s1.206 2.711 2.7 2.711c.71 0 1.35-.28 1.836-.732l6.408 3.76a2.6 2.6 0 0 0-.072.586A2.636 2.636 0 0 0 17.4 21a2.636 2.636 0 0 0 2.628-2.639 2.636 2.636 0 0 0-2.628-2.638" clip-rule="evenodd"/></svg>