<svg xmlns="http://www.w3.org/2000/svg" width="24" height="24" fill="none" viewBox="0 0 24 24"><rect width="24" height="24" fill="url(#a)" rx="6"/><rect width="24" height="24" fill="url(#b)" rx="6"/><path fill="#fff" d="M12 7.385a4.63 4.63 0 0 0-3.268 1.352 4.61 4.61 0 0 0 0 6.526 4.626 4.626 0 0 0 6.536 0 4.61 4.61 0 0 0 0-6.526A4.63 4.63 0 0 0 12 7.385m0 7.612c-.796 0-1.56-.316-2.123-.878A2.996 2.996 0 0 1 12 9c.796 0 1.56.316 2.123.878A2.996 2.996 0 0 1 12 14.997m4.798-6.727a1.077 1.077 0 1 0 .002-2.154 1.077 1.077 0 0 0-.002 2.153"/><path fill="#fff" d="M20.523 6.1a4.6 4.6 0 0 0-2.632-2.627 6.6 6.6 0 0 0-2.185-.42C14.744 3.013 14.44 3 11.998 3c-2.44 0-2.754 0-3.708.054a6.6 6.6 0 0 0-2.183.42A4.6 4.6 0 0 0 3.475 6.1a6.6 6.6 0 0 0-.419 2.181C3.013 9.241 3 9.546 3 11.984s0 2.748.056 3.703c.015.746.156 1.483.419 2.182a4.6 4.6 0 0 0 2.633 2.627 6.6 6.6 0 0 0 2.184.45c.962.04 1.267.054 3.708.054 2.44 0 2.754 0 3.708-.055a6.6 6.6 0 0 0 2.185-.418 4.6 4.6 0 0 0 2.632-2.628 6.6 6.6 0 0 0 .419-2.181c.043-.96.056-1.265.056-3.703s0-2.748-.056-3.703a6.6 6.6 0 0 0-.42-2.212m-1.217 9.513a5 5 0 0 1-.311 1.684 2.98 2.98 0 0 1-1.711 1.708c-.535.198-1.1.303-1.67.31-.95.044-1.217.055-3.652.055-2.437 0-2.686 0-3.653-.055a5 5 0 0 1-1.669-.31 3 3 0 0 1-1.718-1.708 5 5 0 0 1-.31-1.665c-.044-.948-.054-1.216-.054-3.647s0-2.68.053-3.648a5 5 0 0 1 .311-1.683A2.98 2.98 0 0 1 6.64 4.945a5 5 0 0 1 1.669-.31c.95-.043 1.217-.055 3.653-.055s2.686 0 3.652.055c.57.007 1.135.112 1.67.31a3 3 0 0 1 1.71 1.709c.197.534.302 1.097.312 1.665.043.95.054 1.216.054 3.648 0 2.431 0 2.693-.043 3.647z"/><defs><radialGradient id="a" cx="0" cy="0" r="1" gradientTransform="matrix(0 -23.7858 22.1226 0 6.35 25.855)" gradientUnits="userSpaceOnUse"><stop stop-color="#FD5"/><stop offset=".1" stop-color="#FD5"/><stop offset=".5" stop-color="#FF543E"/><stop offset="1" stop-color="#C837AB"/></radialGradient><radialGradient id="b" cx="0" cy="0" r="1" gradientTransform="rotate(78.681 -3.065 -1.588)scale(10.6323 43.827)" gradientUnits="userSpaceOnUse"><stop stop-color="#3771C8"/><stop offset=".128" stop-color="#3771C8"/><stop offset="1" stop-color="#60F" stop-opacity="0"/></radialGradient></defs></svg>